<svg id="visual" viewBox="0 0 1366 768" width="1366" height="768" xmlns="http://www.w3.org/2000/svg" xmlns:xlink="http://www.w3.org/1999/xlink" version="1.1"><rect x="0" y="0" width="1366" height="768" fill="#ffffff"></rect><path d="M0 483L32.5 501.7C65 520.3 130 557.7 195 563.8C260 570 325 545 390 527C455 509 520 498 585.2 495C650.3 492 715.7 497 780.8 514.7C846 532.3 911 562.7 976 573.2C1041 583.7 1106 574.3 1171 558.8C1236 543.3 1301 521.7 1333.5 510.8L1366 500L1366 769L1333.5 769C1301 769 1236 769 1171 769C1106 769 1041 769 976 769C911 769 846 769 780.8 769C715.7 769 650.3 769 585.2 769C520 769 455 769 390 769C325 769 260 769 195 769C130 769 65 769 32.5 769L0 769Z" fill="#0066FF" stroke-linecap="round" stroke-linejoin="miter"></path></svg>