<svg id="visual" viewBox="0 0 1920 1080" width="1920" height="1080" xmlns="http://www.w3.org/2000/svg" xmlns:xlink="http://www.w3.org/1999/xlink" version="1.1"><rect x="0" y="0" width="1920" height="1080" fill="#fdfdfd"></rect><path d="M0 579L53.3 616.8C106.7 654.7 213.3 730.3 320 716.5C426.7 702.7 533.3 599.3 640 567C746.7 534.7 853.3 573.3 960 629.3C1066.7 685.3 1173.3 758.7 1280 797.8C1386.7 837 1493.3 842 1600 837.5C1706.7 833 1813.3 819 1866.7 812L1920 805L1920 1081L1866.7 1081C1813.3 1081 1706.7 1081 1600 1081C1493.3 1081 1386.7 1081 1280 1081C1173.3 1081 1066.7 1081 960 1081C853.3 1081 746.7 1081 640 1081C533.3 1081 426.7 1081 320 1081C213.3 1081 106.7 1081 53.3 1081L0 1081Z" fill="#0066ff"></path><path d="M0 904L53.3 892.8C106.7 881.7 213.3 859.3 320 813.2C426.7 767 533.3 697 640 684.5C746.7 672 853.3 717 960 712.3C1066.7 707.7 1173.3 653.3 1280 653C1386.7 652.7 1493.3 706.3 1600 753.7C1706.7 801 1813.3 842 1866.7 862.5L1920 883L1920 1081L1866.7 1081C1813.3 1081 1706.7 1081 1600 1081C1493.3 1081 1386.7 1081 1280 1081C1173.3 1081 1066.7 1081 960 1081C853.3 1081 746.7 1081 640 1081C533.3 1081 426.7 1081 320 1081C213.3 1081 106.7 1081 53.3 1081L0 1081Z" fill="#0086ff"></path><path d="M0 751L53.3 754C106.7 757 213.3 763 320 745.3C426.7 727.7 533.3 686.3 640 700.5C746.7 714.7 853.3 784.3 960 827.7C1066.7 871 1173.3 888 1280 872.8C1386.7 857.7 1493.3 810.3 1600 797C1706.7 783.7 1813.3 804.3 1866.7 814.7L1920 825L1920 1081L1866.7 1081C1813.3 1081 1706.7 1081 1600 1081C1493.3 1081 1386.7 1081 1280 1081C1173.3 1081 1066.7 1081 960 1081C853.3 1081 746.7 1081 640 1081C533.3 1081 426.7 1081 320 1081C213.3 1081 106.7 1081 53.3 1081L0 1081Z" fill="#37a2fb"></path><path d="M0 916L53.3 907.8C106.7 899.7 213.3 883.3 320 851C426.7 818.7 533.3 770.3 640 767.7C746.7 765 853.3 808 960 811.5C1066.7 815 1173.3 779 1280 766.2C1386.7 753.3 1493.3 763.7 1600 778.2C1706.7 792.7 1813.3 811.3 1866.7 820.7L1920 830L1920 1081L1866.7 1081C1813.3 1081 1706.7 1081 1600 1081C1493.3 1081 1386.7 1081 1280 1081C1173.3 1081 1066.7 1081 960 1081C853.3 1081 746.7 1081 640 1081C533.3 1081 426.7 1081 320 1081C213.3 1081 106.7 1081 53.3 1081L0 1081Z" fill="#4facf7"></path><path d="M0 857L53.3 848.5C106.7 840 213.3 823 320 819.3C426.7 815.7 533.3 825.3 640 840.5C746.7 855.7 853.3 876.3 960 869.7C1066.7 863 1173.3 829 1280 811.8C1386.7 794.7 1493.3 794.3 1600 809C1706.7 823.7 1813.3 853.3 1866.7 868.2L1920 883L1920 1081L1866.7 1081C1813.3 1081 1706.7 1081 1600 1081C1493.3 1081 1386.7 1081 1280 1081C1173.3 1081 1066.7 1081 960 1081C853.3 1081 746.7 1081 640 1081C533.3 1081 426.7 1081 320 1081C213.3 1081 106.7 1081 53.3 1081L0 1081Z" fill="#37a2fb"></path><path d="M0 905L53.3 921.3C106.7 937.7 213.3 970.3 320 984C426.7 997.7 533.3 992.3 640 973.3C746.7 954.3 853.3 921.7 960 924.3C1066.7 927 1173.3 965 1280 974.3C1386.7 983.7 1493.3 964.3 1600 960.7C1706.7 957 1813.3 969 1866.7 975L1920 981L1920 1081L1866.7 1081C1813.3 1081 1706.7 1081 1600 1081C1493.3 1081 1386.7 1081 1280 1081C1173.3 1081 1066.7 1081 960 1081C853.3 1081 746.7 1081 640 1081C533.3 1081 426.7 1081 320 1081C213.3 1081 106.7 1081 53.3 1081L0 1081Z" fill="#0086ff"></path><path d="M0 1026L53.3 1022.5C106.7 1019 213.3 1012 320 1011.5C426.7 1011 533.3 1017 640 1012.8C746.7 1008.7 853.3 994.3 960 988.2C1066.7 982 1173.3 984 1280 976.2C1386.7 968.3 1493.3 950.7 1600 945.3C1706.7 940 1813.3 947 1866.7 950.5L1920 954L1920 1081L1866.7 1081C1813.3 1081 1706.7 1081 1600 1081C1493.3 1081 1386.7 1081 1280 1081C1173.3 1081 1066.7 1081 960 1081C853.3 1081 746.7 1081 640 1081C533.3 1081 426.7 1081 320 1081C213.3 1081 106.7 1081 53.3 1081L0 1081Z" fill="#0066ff"></path></svg>